<?xml version="1.0" encoding="utf-8"?>
<!-- Generator: Adobe Illustrator 23.0.5, SVG Export Plug-In . SVG Version: 6.00 Build 0)  -->
<svg version="1.1" id="Layer_1" xmlns="http://www.w3.org/2000/svg" xmlns:xlink="http://www.w3.org/1999/xlink" x="0px" y="0px"
	 viewBox="0 0 827.4 412.8" style="enable-background:new 0 0 827.4 412.8;" xml:space="preserve">
<style type="text/css">
	.st0{enable-background:new    ;}
	.st1{fill:#00A651;}
</style>
<g>
	<g class="st0">
		<path class="st1" d="M27.7,249.2c0-20.5,0-24.3-0.3-28.6c-0.3-4.6-1.4-6.8-5.8-7.7c-1.1-0.3-3.4-0.4-5.3-0.4
			c-1.5,0-2.3-0.3-2.3-1.2c0-0.9,0.9-1.2,3-1.2c3.6,0,7.6,0.1,10.9,0.1c3.5,0.1,6.6,0.3,8.5,0.3c4.3,0,31.2,0,33.7-0.1
			c2.6-0.3,4.7-0.5,5.8-0.8c0.7-0.1,1.5-0.5,2.2-0.5c0.7,0,0.8,0.5,0.8,1.2c0,0.9-0.7,2.6-1.1,8.8c-0.1,1.3-0.4,7.3-0.7,8.9
			c-0.1,0.7-0.4,1.5-1.4,1.5c-0.9,0-1.2-0.7-1.2-1.9c0-0.9-0.1-3.2-0.8-4.9c-0.9-2.4-2.3-4-9-4.9c-2.3-0.3-16.5-0.5-19.2-0.5
			c-0.7,0-0.9,0.4-0.9,1.3v34.2c0,0.9,0.1,1.5,0.9,1.5c3,0,18.5,0,21.6-0.3c3.2-0.3,5.3-0.7,6.5-2c0.9-1.1,1.5-1.8,2.2-1.8
			c0.5,0,0.9,0.3,0.9,1.1s-0.5,3-1.1,9.9c-0.1,2.7-0.5,8.1-0.5,9c0,1.1,0,2.6-1.2,2.6c-0.9,0-1.2-0.5-1.2-1.2
			c-0.1-1.3-0.1-3.1-0.5-4.9c-0.7-2.7-2.6-4.7-7.6-5.3c-2.6-0.3-15.9-0.4-19.2-0.4c-0.7,0-0.8,0.5-0.8,1.3v10.7c0,4.6-0.1,17,0,20.9
			c0.3,9.3,2.4,11.3,16.2,11.3c3.5,0,9.2,0,12.7-1.6s5.1-4.5,6.1-10c0.3-1.5,0.5-2,1.5-2c1.1,0,1.1,1.1,1.1,2.4
			c0,3.1-1.1,12.3-1.8,15c-0.9,3.5-2.2,3.5-7.3,3.5c-10.1,0-17.5-0.3-23.4-0.4c-5.8-0.3-10-0.4-14-0.4c-1.5,0-4.5,0-7.7,0.1
			c-3.1,0-6.6,0.3-9.3,0.3c-1.8,0-2.7-0.4-2.7-1.4c0-0.7,0.5-1.1,2.2-1.1c2,0,3.6-0.3,4.9-0.5c2.7-0.5,3.4-3.5,3.9-7.4
			c0.7-5.7,0.7-16.3,0.7-28.8V249.2z"/>
		<path class="st1" d="M132.7,293.7c0.3,10.5,2,14,4.7,15c2.3,0.8,4.9,0.9,7,0.9c1.5,0,2.3,0.3,2.3,1.1c0,1.1-1.2,1.4-3.1,1.4
			c-8.8,0-14.2-0.4-16.7-0.4c-1.2,0-7.6,0.4-14.6,0.4c-1.8,0-3-0.1-3-1.4c0-0.8,0.8-1.1,2.2-1.1c1.8,0,4.2-0.1,6.1-0.7
			c3.5-1.1,4-5,4.2-16.7l1.2-79.9c0-2.7,0.4-4.6,1.8-4.6c1.5,0,2.7,1.8,5,4.2c1.6,1.8,22.1,23.8,41.8,43.3
			c9.2,9.2,27.4,28.6,29.7,30.8h0.7l-1.4-60.6c-0.1-8.2-1.4-10.8-4.6-12.1c-2-0.8-5.3-0.8-7.2-0.8c-1.6,0-2.2-0.4-2.2-1.2
			c0-1.1,1.5-1.2,3.5-1.2c7,0,13.5,0.4,16.3,0.4c1.5,0,6.6-0.4,13.2-0.4c1.8,0,3.1,0.1,3.1,1.2c0,0.8-0.8,1.2-2.4,1.2
			c-1.4,0-2.4,0-4,0.4c-3.8,1.1-4.9,3.9-5,11.5l-1.5,85.2c0,3-0.5,4.2-1.8,4.2c-1.5,0-3.1-1.5-4.6-3c-8.5-8.1-25.8-25.8-39.8-39.7
			c-14.7-14.6-29.7-31.5-32.1-34h-0.4L132.7,293.7z"/>
		<path class="st1" d="M265.2,249.2c0-20.5,0-24.3-0.3-28.6c-0.3-4.6-1.4-6.8-5.8-7.7c-1.1-0.3-3.4-0.4-5.3-0.4
			c-1.5,0-2.3-0.3-2.3-1.2c0-0.9,0.9-1.2,3-1.2c7.2,0,15.7,0.4,19.4,0.4c4.2,0,12.7-0.4,20.8-0.4c16.9,0,39.4,0,54.1,15.4
			c6.8,7,13.1,18.2,13.1,34.3c0,17-7.2,30-14.7,37.7c-6.2,6.3-20.2,15.9-45.2,15.9c-4.9,0-10.4-0.4-15.5-0.8
			c-5.1-0.4-9.9-0.8-13.2-0.8c-1.5,0-4.5,0-7.7,0.1c-3.1,0-6.6,0.3-9.3,0.3c-1.8,0-2.7-0.4-2.7-1.4c0-0.7,0.5-1.1,2.2-1.1
			c2,0,3.6-0.3,4.9-0.5c2.7-0.5,3.4-3.5,3.9-7.4c0.7-5.7,0.7-16.3,0.7-28.8V249.2z M282,264c0,14.3,0.1,24.7,0.3,27.3
			c0.1,3.4,0.4,8.8,1.5,10.3c1.8,2.6,7,5.4,17.7,5.4c13.8,0,22.9-2.7,31-9.7c8.6-7.4,11.3-19.7,11.3-33.6c0-17.1-7.2-28.2-13-33.7
			c-12.4-11.9-27.8-13.5-38.3-13.5c-2.7,0-7.7,0.4-8.8,0.9c-1.2,0.5-1.6,1.2-1.6,2.7c-0.1,4.6-0.1,16.3-0.1,27V264z"/>
		<path class="st1" d="M402.3,249.2c0-20.5,0-24.3-0.3-28.6c-0.3-4.6-1.6-6.9-4.6-7.6c-1.5-0.4-3.2-0.5-4.9-0.5
			c-1.3,0-2.2-0.3-2.2-1.4c0-0.8,1.1-1.1,3.2-1.1c5.1,0,13.6,0.4,17.5,0.4c3.4,0,11.3-0.4,16.5-0.4c1.8,0,2.8,0.3,2.8,1.1
			c0,1.1-0.8,1.4-2.2,1.4c-1.3,0-2.4,0.1-4,0.4c-3.6,0.7-4.7,3-5,7.7c-0.3,4.3-0.3,8.1-0.3,28.6v23.8c0,13.1,0,23.8,0.5,29.6
			c0.4,3.6,1.4,6.1,5.4,6.6c1.9,0.3,4.9,0.5,6.9,0.5c1.5,0,2.2,0.4,2.2,1.1c0,0.9-1.1,1.4-2.6,1.4c-8.9,0-17.4-0.4-21.1-0.4
			c-3.1,0-11.6,0.4-17,0.4c-1.8,0-2.7-0.4-2.7-1.4c0-0.7,0.5-1.1,2.2-1.1c2,0,3.6-0.3,4.9-0.5c2.7-0.5,3.5-2.8,3.9-6.8
			c0.7-5.7,0.7-16.3,0.7-29.4V249.2z"/>
		<path class="st1" d="M480.9,276.8c-0.7,0-0.9,0.3-1.2,1.1l-7.3,19.3c-1.3,3.4-2,6.6-2,8.2c0,2.4,1.2,4.2,5.4,4.2h2
			c1.6,0,2,0.3,2,1.1c0,1.1-0.8,1.4-2.3,1.4c-4.3,0-10.1-0.4-14.3-0.4c-1.5,0-8.9,0.4-15.9,0.4c-1.8,0-2.6-0.3-2.6-1.4
			c0-0.8,0.5-1.1,1.6-1.1c1.2,0,3.1-0.1,4.2-0.3c6.2-0.8,8.8-5.4,11.5-12.1l33.9-84.8c1.6-3.9,2.4-5.4,3.8-5.4c1.2,0,2,1.2,3.4,4.3
			c3.2,7.4,24.8,62.5,33.5,83c5.1,12.1,9,14,11.9,14.7c2,0.4,4,0.5,5.7,0.5c1.1,0,1.8,0.1,1.8,1.1c0,1.1-1.2,1.4-6.2,1.4
			c-4.9,0-14.7,0-25.5-0.3c-2.4-0.1-4-0.1-4-1.1c0-0.8,0.5-1.1,1.9-1.2c0.9-0.3,1.9-1.5,1.2-3.1l-10.8-28.6
			c-0.3-0.7-0.7-0.9-1.3-0.9H480.9z M508.4,270.1c0.7,0,0.8-0.4,0.7-0.8L497,235.9c-0.1-0.5-0.3-1.2-0.7-1.2c-0.4,0-0.7,0.7-0.8,1.2
			l-12.4,33.2c-0.1,0.5,0,0.9,0.5,0.9H508.4z"/>
		<path class="st1" d="M589.8,210.6c0.4-2.3,1.2-3.5,2.3-3.5s1.9,0.7,3.6,4.2l36.9,76.1l36.7-77.1c1.1-2.2,1.8-3.2,3-3.2
			s2,1.4,2.4,4.2l12.3,83.4c1.2,8.5,2.6,12.4,6.6,13.6c3.9,1.2,6.6,1.3,8.4,1.3c1.2,0,2.2,0.1,2.2,0.9c0,1.1-1.6,1.5-3.5,1.5
			c-3.4,0-22-0.4-27.4-0.8c-3.1-0.3-3.9-0.7-3.9-1.5c0-0.7,0.5-1.1,1.5-1.5c0.8-0.3,1.2-2,0.7-5.8l-8.1-59.4h-0.5l-29.4,61.3
			c-3.1,6.3-3.8,7.6-5,7.6s-2.6-2.7-4.7-6.7c-3.2-6.2-13.9-26.9-15.5-30.6c-1.2-2.8-9.3-19.8-14-30h-0.5l-7,53.7
			c-0.3,2.4-0.4,4.2-0.4,6.3c0,2.6,1.8,3.8,4,4.3c2.4,0.5,4.3,0.7,5.7,0.7c1.1,0,2,0.3,2,0.9c0,1.2-1.2,1.5-3.2,1.5
			c-5.7,0-11.7-0.4-14.2-0.4c-2.6,0-9,0.4-13.4,0.4c-1.4,0-2.4-0.3-2.4-1.5c0-0.7,0.8-0.9,2.2-0.9c1.1,0,2,0,4-0.4
			c3.8-0.8,4.9-6.1,5.5-10.7L589.8,210.6z"/>
		<path class="st1" d="M744.6,276.8c-0.7,0-0.9,0.3-1.2,1.1l-7.3,19.3c-1.3,3.4-2,6.6-2,8.2c0,2.4,1.2,4.2,5.4,4.2h2
			c1.6,0,2,0.3,2,1.1c0,1.1-0.8,1.4-2.3,1.4c-4.3,0-10.1-0.4-14.3-0.4c-1.5,0-8.9,0.4-15.9,0.4c-1.8,0-2.6-0.3-2.6-1.4
			c0-0.8,0.5-1.1,1.6-1.1c1.2,0,3.1-0.1,4.2-0.3c6.2-0.8,8.8-5.4,11.5-12.1l33.9-84.8c1.6-3.9,2.4-5.4,3.8-5.4c1.2,0,2,1.2,3.4,4.3
			c3.2,7.4,24.8,62.5,33.5,83c5.1,12.1,9,14,11.9,14.7c2,0.4,4,0.5,5.7,0.5c1.1,0,1.8,0.1,1.8,1.1c0,1.1-1.2,1.4-6.2,1.4
			c-4.9,0-14.7,0-25.5-0.3c-2.4-0.1-4-0.1-4-1.1c0-0.8,0.5-1.1,1.9-1.2c0.9-0.3,1.9-1.5,1.2-3.1L776,277.8c-0.3-0.7-0.7-0.9-1.3-0.9
			H744.6z M772.1,270.1c0.7,0,0.8-0.4,0.7-0.8l-12.1-33.3c-0.1-0.5-0.3-1.2-0.7-1.2c-0.4,0-0.7,0.7-0.8,1.2l-12.4,33.2
			c-0.1,0.5,0,0.9,0.5,0.9H772.1z"/>
	</g>
	<g class="st0">
		<path class="st1" d="M28.1,360.1c0-4.1,0-4.9-0.1-5.7c-0.1-0.9-0.3-1.3-1.2-1.5c-0.2-0.1-0.7-0.1-1.1-0.1c-0.3,0-0.5-0.1-0.5-0.2
			c0-0.2,0.2-0.2,0.6-0.2c0.7,0,1.5,0,2.2,0c0.7,0,1.3,0.1,1.7,0.1c0.9,0,6.2,0,6.7,0c0.5-0.1,0.9-0.1,1.2-0.2
			c0.1,0,0.3-0.1,0.4-0.1c0.1,0,0.2,0.1,0.2,0.2c0,0.2-0.1,0.5-0.2,1.8c0,0.3-0.1,1.5-0.1,1.8c0,0.1-0.1,0.3-0.3,0.3
			c-0.2,0-0.2-0.1-0.2-0.4c0-0.2,0-0.6-0.2-1c-0.2-0.5-0.5-0.8-1.8-1c-0.5-0.1-3.3-0.1-3.8-0.1c-0.1,0-0.2,0.1-0.2,0.3v6.8
			c0,0.2,0,0.3,0.2,0.3c0.6,0,3.7,0,4.3-0.1c0.6-0.1,1.1-0.1,1.3-0.4c0.2-0.2,0.3-0.4,0.4-0.4c0.1,0,0.2,0.1,0.2,0.2s-0.1,0.6-0.2,2
			c0,0.5-0.1,1.6-0.1,1.8c0,0.2,0,0.5-0.2,0.5c-0.2,0-0.2-0.1-0.2-0.2c0-0.3,0-0.6-0.1-1c-0.1-0.5-0.5-0.9-1.5-1.1
			c-0.5-0.1-3.2-0.1-3.8-0.1c-0.1,0-0.2,0.1-0.2,0.3v2.1c0,0.9,0,3.4,0,4.2c0.1,1.9,0.5,2.3,3.2,2.3c0.7,0,1.8,0,2.5-0.3
			c0.7-0.3,1-0.9,1.2-2c0.1-0.3,0.1-0.4,0.3-0.4c0.2,0,0.2,0.2,0.2,0.5c0,0.6-0.2,2.5-0.4,3c-0.2,0.7-0.4,0.7-1.5,0.7
			c-2,0-3.5-0.1-4.7-0.1c-1.2-0.1-2-0.1-2.8-0.1c-0.3,0-0.9,0-1.5,0c-0.6,0-1.3,0.1-1.9,0.1c-0.4,0-0.5-0.1-0.5-0.3
			c0-0.1,0.1-0.2,0.4-0.2c0.4,0,0.7-0.1,1-0.1c0.5-0.1,0.7-0.7,0.8-1.5c0.1-1.1,0.1-3.3,0.1-5.8V360.1z"/>
		<path class="st1" d="M46.2,352.4c0.1-0.5,0.2-0.7,0.5-0.7c0.2,0,0.4,0.1,0.7,0.8l7.4,15.2l7.3-15.4c0.2-0.4,0.4-0.6,0.6-0.6
			c0.2,0,0.4,0.3,0.5,0.8l2.5,16.7c0.2,1.7,0.5,2.5,1.3,2.7c0.8,0.2,1.3,0.3,1.7,0.3c0.2,0,0.4,0,0.4,0.2c0,0.2-0.3,0.3-0.7,0.3
			c-0.7,0-4.4-0.1-5.5-0.2c-0.6-0.1-0.8-0.1-0.8-0.3c0-0.1,0.1-0.2,0.3-0.3c0.2-0.1,0.2-0.4,0.1-1.2l-1.6-11.9h-0.1l-5.9,12.3
			c-0.6,1.3-0.8,1.5-1,1.5s-0.5-0.5-0.9-1.3c-0.6-1.2-2.8-5.4-3.1-6.1c-0.2-0.6-1.9-4-2.8-6H47l-1.4,10.7c-0.1,0.5-0.1,0.8-0.1,1.3
			c0,0.5,0.4,0.8,0.8,0.9c0.5,0.1,0.9,0.1,1.1,0.1c0.2,0,0.4,0.1,0.4,0.2c0,0.2-0.2,0.3-0.6,0.3c-1.1,0-2.3-0.1-2.8-0.1
			c-0.5,0-1.8,0.1-2.7,0.1c-0.3,0-0.5-0.1-0.5-0.3c0-0.1,0.2-0.2,0.4-0.2c0.2,0,0.4,0,0.8-0.1c0.8-0.2,1-1.2,1.1-2.1L46.2,352.4z"/>
		<path class="st1" d="M73.4,360.1c0-4.1,0-4.9-0.1-5.7c-0.1-0.9-0.3-1.3-1.2-1.5c-0.2-0.1-0.7-0.1-1.1-0.1c-0.3,0-0.5-0.1-0.5-0.2
			c0-0.2,0.2-0.2,0.6-0.2c1.4,0,3.1,0.1,3.9,0.1c1.1,0,2.7-0.1,3.9-0.1c3.4,0,4.6,1.1,5,1.5c0.6,0.6,1.3,1.8,1.3,3.2
			c0,3.8-2.8,6.5-6.6,6.5c-0.1,0-0.4,0-0.6,0c-0.1,0-0.3-0.1-0.3-0.2c0-0.2,0.2-0.3,0.8-0.3c1.5,0,3.6-1.7,3.6-4.5
			c0-0.9-0.1-2.7-1.6-4c-1-0.9-2.1-1.1-2.7-1.1c-0.4,0-0.8,0-1.1,0.1c-0.1,0.1-0.2,0.2-0.2,0.5v10.8c0,2.5,0,4.6,0.1,5.8
			c0.1,0.8,0.2,1.3,1.1,1.5c0.4,0.1,1,0.1,1.4,0.1c0.3,0,0.4,0.1,0.4,0.2c0,0.2-0.2,0.3-0.5,0.3c-1.8,0-3.5-0.1-4.2-0.1
			c-0.6,0-2.3,0.1-3.4,0.1c-0.4,0-0.5-0.1-0.5-0.3c0-0.1,0.1-0.2,0.4-0.2c0.4,0,0.7-0.1,1-0.1c0.5-0.1,0.7-0.7,0.8-1.5
			c0.1-1.1,0.1-3.3,0.1-5.8V360.1z"/>
		<path class="st1" d="M91.1,360.1c0-4.1,0-4.9-0.1-5.7c-0.1-0.9-0.3-1.3-1.2-1.5c-0.2-0.1-0.7-0.1-1.1-0.1c-0.3,0-0.5-0.1-0.5-0.2
			c0-0.2,0.2-0.2,0.6-0.2c1.4,0,3.1,0.1,3.7,0.1c0.9,0,3-0.1,3.8-0.1c1.7,0,3.5,0.2,5,1.2c0.8,0.5,1.8,1.9,1.8,3.7
			c0,2-0.8,3.8-3.6,6c2.4,3,4.3,5.4,5.9,7.1c1.5,1.6,2.6,1.8,3,1.8c0.3,0.1,0.5,0.1,0.8,0.1c0.2,0,0.3,0.1,0.3,0.2
			c0,0.2-0.2,0.3-0.5,0.3h-2.6c-1.5,0-2.2-0.1-2.9-0.5c-1.2-0.6-2.2-1.9-3.7-4c-1.1-1.5-2.3-3.3-2.7-3.7c-0.1-0.2-0.3-0.2-0.5-0.2
			l-2.3-0.1c-0.1,0-0.2,0.1-0.2,0.2v0.4c0,2.5,0,4.6,0.1,5.8c0.1,0.8,0.2,1.4,1.1,1.5c0.4,0.1,1,0.1,1.3,0.1c0.2,0,0.3,0.1,0.3,0.2
			c0,0.2-0.2,0.3-0.5,0.3c-1.6,0-3.6-0.1-4-0.1c-0.5,0-2.2,0.1-3.3,0.1c-0.4,0-0.5-0.1-0.5-0.3c0-0.1,0.1-0.2,0.4-0.2
			c0.4,0,0.7-0.1,1-0.1c0.5-0.1,0.7-0.7,0.8-1.5c0.1-1.1,0.1-3.3,0.1-5.8V360.1z M94.2,362.2c0,0.3,0.1,0.4,0.2,0.5
			c0.6,0.2,1.4,0.3,2.1,0.3c1.1,0,1.4-0.1,1.9-0.5c0.8-0.6,1.6-1.8,1.6-4c0-3.8-2.5-4.9-4.1-4.9c-0.7,0-1.2,0-1.4,0.1
			c-0.2,0.1-0.2,0.2-0.2,0.4V362.2z"/>
		<path class="st1" d="M111.4,360.1c0-4.1,0-4.9-0.1-5.7c-0.1-0.9-0.3-1.3-1.2-1.5c-0.2-0.1-0.7-0.1-1.1-0.1c-0.3,0-0.5-0.1-0.5-0.2
			c0-0.2,0.2-0.2,0.6-0.2c0.7,0,1.5,0,2.2,0c0.7,0,1.3,0.1,1.7,0.1c0.9,0,6.2,0,6.7,0c0.5-0.1,0.9-0.1,1.2-0.2
			c0.1,0,0.3-0.1,0.4-0.1c0.1,0,0.2,0.1,0.2,0.2c0,0.2-0.1,0.5-0.2,1.8c0,0.3-0.1,1.5-0.1,1.8c0,0.1-0.1,0.3-0.3,0.3
			s-0.2-0.1-0.2-0.4c0-0.2,0-0.6-0.2-1c-0.2-0.5-0.5-0.8-1.8-1c-0.5-0.1-3.3-0.1-3.8-0.1c-0.1,0-0.2,0.1-0.2,0.3v6.8
			c0,0.2,0,0.3,0.2,0.3c0.6,0,3.7,0,4.3-0.1c0.6-0.1,1.1-0.1,1.3-0.4c0.2-0.2,0.3-0.4,0.4-0.4c0.1,0,0.2,0.1,0.2,0.2s-0.1,0.6-0.2,2
			c0,0.5-0.1,1.6-0.1,1.8c0,0.2,0,0.5-0.2,0.5c-0.2,0-0.2-0.1-0.2-0.2c0-0.3,0-0.6-0.1-1c-0.1-0.5-0.5-0.9-1.5-1.1
			c-0.5-0.1-3.2-0.1-3.8-0.1c-0.1,0-0.2,0.1-0.2,0.3v2.1c0,0.9,0,3.4,0,4.2c0.1,1.9,0.5,2.3,3.2,2.3c0.7,0,1.8,0,2.5-0.3
			c0.7-0.3,1-0.9,1.2-2c0.1-0.3,0.1-0.4,0.3-0.4c0.2,0,0.2,0.2,0.2,0.5c0,0.6-0.2,2.5-0.4,3c-0.2,0.7-0.4,0.7-1.5,0.7
			c-2,0-3.5-0.1-4.7-0.1c-1.2-0.1-2-0.1-2.8-0.1c-0.3,0-0.9,0-1.5,0c-0.6,0-1.3,0.1-1.9,0.1c-0.4,0-0.5-0.1-0.5-0.3
			c0-0.1,0.1-0.2,0.4-0.2c0.4,0,0.7-0.1,1-0.1c0.5-0.1,0.7-0.7,0.8-1.5c0.1-1.1,0.1-3.3,0.1-5.8V360.1z"/>
		<path class="st1" d="M127,372.4c-0.4-0.2-0.5-0.3-0.5-0.9c0-1.5,0.1-3.1,0.1-3.5c0-0.4,0.1-0.7,0.3-0.7c0.2,0,0.3,0.2,0.3,0.5
			c0,0.4,0.1,0.9,0.2,1.4c0.6,2,2.2,2.7,3.9,2.7c2.4,0,3.6-1.6,3.6-3.1c0-1.3-0.4-2.6-2.6-4.3l-1.2-1c-3-2.3-4-4.2-4-6.4
			c0-3,2.5-5.1,6.2-5.1c1.8,0,2.9,0.3,3.6,0.5c0.2,0.1,0.4,0.1,0.4,0.3c0,0.4-0.1,1.1-0.1,3.2c0,0.6-0.1,0.8-0.3,0.8
			c-0.2,0-0.3-0.2-0.3-0.5c0-0.2-0.1-1.1-0.7-1.8c-0.4-0.5-1.2-1.3-2.9-1.3c-2,0-3.2,1.2-3.2,2.8c0,1.2,0.6,2.2,2.9,3.9l0.8,0.6
			c3.3,2.5,4.4,4.3,4.4,6.9c0,1.6-0.6,3.4-2.5,4.7c-1.3,0.9-2.9,1.1-4.3,1.1C129.4,373.1,128.2,372.9,127,372.4z"/>
		<path class="st1" d="M145.3,365.6c-0.1,0-0.2,0.1-0.2,0.2l-1.5,3.9c-0.3,0.7-0.4,1.3-0.4,1.6c0,0.5,0.2,0.8,1.1,0.8h0.4
			c0.3,0,0.4,0.1,0.4,0.2c0,0.2-0.2,0.3-0.5,0.3c-0.9,0-2-0.1-2.9-0.1c-0.3,0-1.8,0.1-3.2,0.1c-0.4,0-0.5-0.1-0.5-0.3
			c0-0.2,0.1-0.2,0.3-0.2c0.2,0,0.6,0,0.8-0.1c1.2-0.2,1.8-1.1,2.3-2.4l6.8-17c0.3-0.8,0.5-1.1,0.8-1.1c0.2,0,0.4,0.2,0.7,0.9
			c0.6,1.5,5,12.5,6.7,16.6c1,2.4,1.8,2.8,2.4,2.9c0.4,0.1,0.8,0.1,1.1,0.1c0.2,0,0.4,0,0.4,0.2c0,0.2-0.2,0.3-1.2,0.3
			c-1,0-2.9,0-5.1-0.1c-0.5,0-0.8,0-0.8-0.2c0-0.2,0.1-0.2,0.4-0.2c0.2-0.1,0.4-0.3,0.2-0.6l-2.2-5.7c-0.1-0.1-0.1-0.2-0.3-0.2
			H145.3z M150.8,364.3c0.1,0,0.2-0.1,0.1-0.2l-2.4-6.7c0-0.1-0.1-0.2-0.1-0.2c-0.1,0-0.1,0.1-0.2,0.2l-2.5,6.6c0,0.1,0,0.2,0.1,0.2
			H150.8z"/>
		<path class="st1" d="M172.7,369c0.1,2.1,0.4,2.8,0.9,3c0.5,0.2,1,0.2,1.4,0.2c0.3,0,0.5,0.1,0.5,0.2c0,0.2-0.2,0.3-0.6,0.3
			c-1.8,0-2.8-0.1-3.3-0.1c-0.2,0-1.5,0.1-2.9,0.1c-0.4,0-0.6,0-0.6-0.3c0-0.2,0.2-0.2,0.4-0.2c0.4,0,0.8,0,1.2-0.1
			c0.7-0.2,0.8-1,0.8-3.3l0.2-16c0-0.5,0.1-0.9,0.4-0.9c0.3,0,0.5,0.4,1,0.8c0.3,0.4,4.4,4.8,8.4,8.7c1.8,1.8,5.5,5.7,5.9,6.2h0.1
			l-0.3-12.1c0-1.6-0.3-2.2-0.9-2.4c-0.4-0.2-1.1-0.2-1.4-0.2c-0.3,0-0.4-0.1-0.4-0.2c0-0.2,0.3-0.2,0.7-0.2c1.4,0,2.7,0.1,3.3,0.1
			c0.3,0,1.3-0.1,2.6-0.1c0.4,0,0.6,0,0.6,0.2c0,0.2-0.2,0.2-0.5,0.2c-0.3,0-0.5,0-0.8,0.1c-0.8,0.2-1,0.8-1,2.3l-0.3,17
			c0,0.6-0.1,0.8-0.4,0.8c-0.3,0-0.6-0.3-0.9-0.6c-1.7-1.6-5.2-5.2-8-7.9c-2.9-2.9-5.9-6.3-6.4-6.8h-0.1L172.7,369z"/>
		<path class="st1" d="M197.9,365.6c-0.1,0-0.2,0.1-0.2,0.2l-1.5,3.9c-0.3,0.7-0.4,1.3-0.4,1.6c0,0.5,0.2,0.8,1.1,0.8h0.4
			c0.3,0,0.4,0.1,0.4,0.2c0,0.2-0.2,0.3-0.5,0.3c-0.9,0-2-0.1-2.9-0.1c-0.3,0-1.8,0.1-3.2,0.1c-0.4,0-0.5-0.1-0.5-0.3
			c0-0.2,0.1-0.2,0.3-0.2c0.2,0,0.6,0,0.8-0.1c1.2-0.2,1.8-1.1,2.3-2.4l6.8-17c0.3-0.8,0.5-1.1,0.8-1.1c0.2,0,0.4,0.2,0.7,0.9
			c0.6,1.5,5,12.5,6.7,16.6c1,2.4,1.8,2.8,2.4,2.9c0.4,0.1,0.8,0.1,1.1,0.1c0.2,0,0.4,0,0.4,0.2c0,0.2-0.2,0.3-1.2,0.3
			c-1,0-2.9,0-5.1-0.1c-0.5,0-0.8,0-0.8-0.2c0-0.2,0.1-0.2,0.4-0.2c0.2-0.1,0.4-0.3,0.2-0.6l-2.2-5.7c-0.1-0.1-0.1-0.2-0.3-0.2
			H197.9z M203.4,364.3c0.1,0,0.2-0.1,0.1-0.2l-2.4-6.7c0-0.1-0.1-0.2-0.1-0.2c-0.1,0-0.1,0.1-0.2,0.2l-2.5,6.6c0,0.1,0,0.2,0.1,0.2
			H203.4z"/>
		<path class="st1" d="M216.1,370.1c-2.6-2.3-3.3-5.3-3.3-8c0-1.8,0.6-5,3.2-7.4c1.9-1.8,4.5-2.9,8.5-2.9c1.7,0,2.7,0.1,3.9,0.3
			c1,0.1,1.9,0.4,2.7,0.5c0.3,0,0.4,0.2,0.4,0.3c0,0.2-0.1,0.5-0.1,1.5c-0.1,0.9,0,2.4-0.1,2.9c0,0.4-0.1,0.6-0.3,0.6
			c-0.2,0-0.3-0.2-0.3-0.6c0-0.8-0.4-1.8-1.1-2.5c-0.9-0.9-3-1.7-5.5-1.7c-2.3,0-3.9,0.6-5.1,1.7c-2,1.8-2.5,4.4-2.5,7
			c0,6.4,4.9,9.6,8.5,9.6c2.4,0,3.9-0.3,4.9-1.5c0.5-0.5,0.8-1.3,0.9-1.8c0.1-0.4,0.1-0.5,0.4-0.5c0.2,0,0.2,0.2,0.2,0.4
			c0,0.3-0.3,2.7-0.6,3.6c-0.1,0.5-0.2,0.6-0.7,0.8c-1.1,0.4-3.1,0.6-4.9,0.6C221.6,373.1,218.5,372.3,216.1,370.1z"/>
		<path class="st1" d="M237.3,360.1c0-4.1,0-4.9-0.1-5.7c-0.1-0.9-0.3-1.4-0.9-1.5c-0.3-0.1-0.6-0.1-1-0.1c-0.3,0-0.4-0.1-0.4-0.3
			c0-0.2,0.2-0.2,0.6-0.2c1,0,2.7,0.1,3.5,0.1c0.7,0,2.3-0.1,3.3-0.1c0.4,0,0.6,0.1,0.6,0.2c0,0.2-0.2,0.3-0.4,0.3
			c-0.3,0-0.5,0-0.8,0.1c-0.7,0.1-0.9,0.6-1,1.5c-0.1,0.9-0.1,1.6-0.1,5.7v4.8c0,2.6,0,4.8,0.1,5.9c0.1,0.7,0.3,1.2,1.1,1.3
			c0.4,0.1,1,0.1,1.4,0.1c0.3,0,0.4,0.1,0.4,0.2c0,0.2-0.2,0.3-0.5,0.3c-1.8,0-3.5-0.1-4.2-0.1c-0.6,0-2.3,0.1-3.4,0.1
			c-0.4,0-0.5-0.1-0.5-0.3c0-0.1,0.1-0.2,0.4-0.2c0.4,0,0.7-0.1,1-0.1c0.5-0.1,0.7-0.6,0.8-1.3c0.1-1.1,0.1-3.3,0.1-5.9V360.1z"/>
		<path class="st1" d="M246.3,362.5c0-4.6,3.1-10.6,11.1-10.6c6.7,0,10.9,3.9,10.9,10.1c0,6.2-4.3,11.1-11.2,11.1
			C249.4,373.1,246.3,367.3,246.3,362.5z M264.5,363c0-6-3.5-9.8-7.9-9.8c-3.1,0-6.6,1.7-6.6,8.4c0,5.6,3.1,10.1,8.3,10.1
			C260.2,371.7,264.5,370.8,264.5,363z"/>
		<path class="st1" d="M275.5,369c0.1,2.1,0.4,2.8,0.9,3c0.5,0.2,1,0.2,1.4,0.2c0.3,0,0.5,0.1,0.5,0.2c0,0.2-0.2,0.3-0.6,0.3
			c-1.8,0-2.8-0.1-3.3-0.1c-0.2,0-1.5,0.1-2.9,0.1c-0.4,0-0.6,0-0.6-0.3c0-0.2,0.2-0.2,0.4-0.2c0.4,0,0.8,0,1.2-0.1
			c0.7-0.2,0.8-1,0.8-3.3l0.2-16c0-0.5,0.1-0.9,0.4-0.9c0.3,0,0.5,0.4,1,0.8c0.3,0.4,4.4,4.8,8.4,8.7c1.8,1.8,5.5,5.7,5.9,6.2h0.1
			l-0.3-12.1c0-1.6-0.3-2.2-0.9-2.4c-0.4-0.2-1.1-0.2-1.4-0.2c-0.3,0-0.4-0.1-0.4-0.2c0-0.2,0.3-0.2,0.7-0.2c1.4,0,2.7,0.1,3.3,0.1
			c0.3,0,1.3-0.1,2.6-0.1c0.4,0,0.6,0,0.6,0.2c0,0.2-0.2,0.2-0.5,0.2c-0.3,0-0.5,0-0.8,0.1c-0.8,0.2-1,0.8-1,2.3l-0.3,17
			c0,0.6-0.1,0.8-0.4,0.8c-0.3,0-0.6-0.3-0.9-0.6c-1.7-1.6-5.2-5.2-8-7.9c-2.9-2.9-5.9-6.3-6.4-6.8h-0.1L275.5,369z"/>
		<path class="st1" d="M300.6,365.6c-0.1,0-0.2,0.1-0.2,0.2l-1.5,3.9c-0.3,0.7-0.4,1.3-0.4,1.6c0,0.5,0.2,0.8,1.1,0.8h0.4
			c0.3,0,0.4,0.1,0.4,0.2c0,0.2-0.2,0.3-0.5,0.3c-0.9,0-2-0.1-2.9-0.1c-0.3,0-1.8,0.1-3.2,0.1c-0.4,0-0.5-0.1-0.5-0.3
			c0-0.2,0.1-0.2,0.3-0.2c0.2,0,0.6,0,0.8-0.1c1.2-0.2,1.8-1.1,2.3-2.4l6.8-17c0.3-0.8,0.5-1.1,0.8-1.1c0.2,0,0.4,0.2,0.7,0.9
			c0.6,1.5,5,12.5,6.7,16.6c1,2.4,1.8,2.8,2.4,2.9c0.4,0.1,0.8,0.1,1.1,0.1c0.2,0,0.4,0,0.4,0.2c0,0.2-0.2,0.3-1.2,0.3
			c-1,0-2.9,0-5.1-0.1c-0.5,0-0.8,0-0.8-0.2c0-0.2,0.1-0.2,0.4-0.2c0.2-0.1,0.4-0.3,0.2-0.6l-2.2-5.7c-0.1-0.1-0.1-0.2-0.3-0.2
			H300.6z M306.1,364.3c0.1,0,0.2-0.1,0.1-0.2l-2.4-6.7c0-0.1-0.1-0.2-0.1-0.2c-0.1,0-0.1,0.1-0.2,0.2l-2.5,6.6c0,0.1,0,0.2,0.1,0.2
			H306.1z"/>
		<path class="st1" d="M321.8,364.9c0,3.5,0,5.3,0.6,5.8c0.5,0.4,1.2,0.6,3.3,0.6c1.4,0,2.5,0,3.2-0.8c0.3-0.4,0.6-1.1,0.7-1.6
			c0-0.2,0.1-0.4,0.3-0.4c0.2,0,0.2,0.1,0.2,0.5c0,0.3-0.2,2.3-0.4,3.1c-0.2,0.6-0.3,0.7-1.7,0.7c-1.9,0-3.3-0.1-4.6-0.1
			c-1.2-0.1-2.2-0.1-3.3-0.1c-0.3,0-0.9,0-1.5,0c-0.6,0-1.3,0.1-1.9,0.1c-0.4,0-0.5-0.1-0.5-0.3c0-0.1,0.1-0.2,0.4-0.2
			c0.4,0,0.7-0.1,1-0.1c0.5-0.1,0.7-0.7,0.8-1.5c0.1-1.1,0.1-3.3,0.1-5.8v-4.8c0-4.1,0-4.9-0.1-5.7c-0.1-0.9-0.3-1.3-1.2-1.5
			c-0.2-0.1-0.5-0.1-0.9-0.1c-0.3,0-0.5-0.1-0.5-0.2c0-0.2,0.2-0.2,0.6-0.2c1.3,0,3,0.1,3.7,0.1c0.6,0,2.6-0.1,3.7-0.1
			c0.4,0,0.6,0.1,0.6,0.2c0,0.2-0.2,0.2-0.5,0.2c-0.3,0-0.7,0-1.1,0.1c-0.7,0.1-0.9,0.6-1,1.5c-0.1,0.9-0.1,1.6-0.1,5.7V364.9z"/>
		<path class="st1" d="M342.9,360.1c0-4.1,0-4.9-0.1-5.7c-0.1-0.9-0.3-1.3-1.2-1.5c-0.2-0.1-0.7-0.1-1.1-0.1c-0.3,0-0.5-0.1-0.5-0.2
			c0-0.2,0.2-0.2,0.6-0.2c1.4,0,3.1,0.1,3.9,0.1c0.8,0,2.5-0.1,4.2-0.1c3.4,0,7.9,0,10.8,3.1c1.3,1.4,2.6,3.6,2.6,6.9
			c0,3.4-1.4,6-2.9,7.5c-1.2,1.3-4,3.2-9,3.2c-1,0-2.1-0.1-3.1-0.2c-1-0.1-2-0.2-2.6-0.2c-0.3,0-0.9,0-1.5,0c-0.6,0-1.3,0.1-1.9,0.1
			c-0.4,0-0.5-0.1-0.5-0.3c0-0.1,0.1-0.2,0.4-0.2c0.4,0,0.7-0.1,1-0.1c0.5-0.1,0.7-0.7,0.8-1.5c0.1-1.1,0.1-3.3,0.1-5.8V360.1z
			 M346.3,363.1c0,2.9,0,4.9,0.1,5.5c0,0.7,0.1,1.8,0.3,2.1c0.4,0.5,1.4,1.1,3.5,1.1c2.8,0,4.6-0.5,6.2-1.9c1.7-1.5,2.3-3.9,2.3-6.7
			c0-3.4-1.4-5.6-2.6-6.7c-2.5-2.4-5.6-2.7-7.7-2.7c-0.5,0-1.5,0.1-1.8,0.2c-0.2,0.1-0.3,0.2-0.3,0.5c0,0.9,0,3.3,0,5.4V363.1z"/>
		<path class="st1" d="M367.9,360.1c0-4.1,0-4.9-0.1-5.7c-0.1-0.9-0.3-1.3-1.2-1.5c-0.2-0.1-0.7-0.1-1.1-0.1c-0.3,0-0.5-0.1-0.5-0.2
			c0-0.2,0.2-0.2,0.6-0.2c0.7,0,1.5,0,2.2,0c0.7,0,1.3,0.1,1.7,0.1c0.9,0,6.2,0,6.7,0c0.5-0.1,0.9-0.1,1.2-0.2
			c0.1,0,0.3-0.1,0.4-0.1c0.1,0,0.2,0.1,0.2,0.2c0,0.2-0.1,0.5-0.2,1.8c0,0.3-0.1,1.5-0.1,1.8c0,0.1-0.1,0.3-0.3,0.3
			c-0.2,0-0.2-0.1-0.2-0.4c0-0.2,0-0.6-0.2-1c-0.2-0.5-0.5-0.8-1.8-1c-0.5-0.1-3.3-0.1-3.8-0.1c-0.1,0-0.2,0.1-0.2,0.3v6.8
			c0,0.2,0,0.3,0.2,0.3c0.6,0,3.7,0,4.3-0.1c0.6-0.1,1.1-0.1,1.3-0.4c0.2-0.2,0.3-0.4,0.4-0.4c0.1,0,0.2,0.1,0.2,0.2s-0.1,0.6-0.2,2
			c0,0.5-0.1,1.6-0.1,1.8c0,0.2,0,0.5-0.2,0.5c-0.2,0-0.2-0.1-0.2-0.2c0-0.3,0-0.6-0.1-1c-0.1-0.5-0.5-0.9-1.5-1.1
			c-0.5-0.1-3.2-0.1-3.8-0.1c-0.1,0-0.2,0.1-0.2,0.3v2.1c0,0.9,0,3.4,0,4.2c0.1,1.9,0.5,2.3,3.2,2.3c0.7,0,1.8,0,2.5-0.3
			c0.7-0.3,1-0.9,1.2-2c0.1-0.3,0.1-0.4,0.3-0.4c0.2,0,0.2,0.2,0.2,0.5c0,0.6-0.2,2.5-0.4,3c-0.2,0.7-0.4,0.7-1.5,0.7
			c-2,0-3.5-0.1-4.7-0.1c-1.2-0.1-2-0.1-2.8-0.1c-0.3,0-0.9,0-1.5,0c-0.6,0-1.3,0.1-1.9,0.1c-0.4,0-0.5-0.1-0.5-0.3
			c0-0.1,0.1-0.2,0.4-0.2c0.4,0,0.7-0.1,1-0.1c0.5-0.1,0.7-0.7,0.8-1.5c0.1-1.1,0.1-3.3,0.1-5.8V360.1z"/>
		<path class="st1" d="M393,360.1c0-4.1,0-4.9-0.1-5.7c-0.1-0.9-0.3-1.3-1.2-1.5c-0.2-0.1-0.7-0.1-1.1-0.1c-0.3,0-0.5-0.1-0.5-0.2
			c0-0.2,0.2-0.2,0.6-0.2c1.4,0,3.1,0.1,3.9,0.1c0.8,0,2.5-0.1,4.2-0.1c3.4,0,7.9,0,10.8,3.1c1.3,1.4,2.6,3.6,2.6,6.9
			c0,3.4-1.4,6-2.9,7.5c-1.2,1.3-4,3.2-9,3.2c-1,0-2.1-0.1-3.1-0.2c-1-0.1-2-0.2-2.6-0.2c-0.3,0-0.9,0-1.5,0c-0.6,0-1.3,0.1-1.9,0.1
			c-0.4,0-0.5-0.1-0.5-0.3c0-0.1,0.1-0.2,0.4-0.2c0.4,0,0.7-0.1,1-0.1c0.5-0.1,0.7-0.7,0.8-1.5c0.1-1.1,0.1-3.3,0.1-5.8V360.1z
			 M396.4,363.1c0,2.9,0,4.9,0.1,5.5c0,0.7,0.1,1.8,0.3,2.1c0.4,0.5,1.4,1.1,3.5,1.1c2.8,0,4.6-0.5,6.2-1.9c1.7-1.5,2.3-3.9,2.3-6.7
			c0-3.4-1.4-5.6-2.6-6.7c-2.5-2.4-5.6-2.7-7.7-2.7c-0.5,0-1.5,0.1-1.8,0.2c-0.2,0.1-0.3,0.2-0.3,0.5c0,0.9,0,3.3,0,5.4V363.1z"/>
		<path class="st1" d="M418,360.1c0-4.1,0-4.9-0.1-5.7c-0.1-0.9-0.3-1.4-0.9-1.5c-0.3-0.1-0.6-0.1-1-0.1c-0.3,0-0.4-0.1-0.4-0.3
			c0-0.2,0.2-0.2,0.6-0.2c1,0,2.7,0.1,3.5,0.1c0.7,0,2.3-0.1,3.3-0.1c0.4,0,0.6,0.1,0.6,0.2c0,0.2-0.2,0.3-0.4,0.3s-0.5,0-0.8,0.1
			c-0.7,0.1-0.9,0.6-1,1.5c-0.1,0.9-0.1,1.6-0.1,5.7v4.8c0,2.6,0,4.8,0.1,5.9c0.1,0.7,0.3,1.2,1.1,1.3c0.4,0.1,1,0.1,1.4,0.1
			c0.3,0,0.4,0.1,0.4,0.2c0,0.2-0.2,0.3-0.5,0.3c-1.8,0-3.5-0.1-4.2-0.1c-0.6,0-2.3,0.1-3.4,0.1c-0.4,0-0.5-0.1-0.5-0.3
			c0-0.1,0.1-0.2,0.4-0.2c0.4,0,0.7-0.1,1-0.1c0.5-0.1,0.7-0.6,0.8-1.3c0.1-1.1,0.1-3.3,0.1-5.9V360.1z"/>
		<path class="st1" d="M431.3,365.6c-0.1,0-0.2,0.1-0.2,0.2l-1.5,3.9c-0.3,0.7-0.4,1.3-0.4,1.6c0,0.5,0.2,0.8,1.1,0.8h0.4
			c0.3,0,0.4,0.1,0.4,0.2c0,0.2-0.2,0.3-0.5,0.3c-0.9,0-2-0.1-2.9-0.1c-0.3,0-1.8,0.1-3.2,0.1c-0.4,0-0.5-0.1-0.5-0.3
			c0-0.2,0.1-0.2,0.3-0.2c0.2,0,0.6,0,0.8-0.1c1.2-0.2,1.8-1.1,2.3-2.4l6.8-17c0.3-0.8,0.5-1.1,0.8-1.1c0.2,0,0.4,0.2,0.7,0.9
			c0.6,1.5,5,12.5,6.7,16.6c1,2.4,1.8,2.8,2.4,2.9c0.4,0.1,0.8,0.1,1.1,0.1c0.2,0,0.4,0,0.4,0.2c0,0.2-0.2,0.3-1.2,0.3
			c-1,0-2.9,0-5.1-0.1c-0.5,0-0.8,0-0.8-0.2c0-0.2,0.1-0.2,0.4-0.2c0.2-0.1,0.4-0.3,0.2-0.6l-2.2-5.7c-0.1-0.1-0.1-0.2-0.3-0.2
			H431.3z M436.8,364.3c0.1,0,0.2-0.1,0.1-0.2l-2.4-6.7c0-0.1-0.1-0.2-0.1-0.2c-0.1,0-0.1,0.1-0.2,0.2l-2.5,6.6c0,0.1,0,0.2,0.1,0.2
			H436.8z"/>
		<path class="st1" d="M450.7,352.4c0.1-0.5,0.2-0.7,0.5-0.7s0.4,0.1,0.7,0.8l7.4,15.2l7.3-15.4c0.2-0.4,0.4-0.6,0.6-0.6
			s0.4,0.3,0.5,0.8l2.5,16.7c0.2,1.7,0.5,2.5,1.3,2.7c0.8,0.2,1.3,0.3,1.7,0.3c0.2,0,0.4,0,0.4,0.2c0,0.2-0.3,0.3-0.7,0.3
			c-0.7,0-4.4-0.1-5.5-0.2c-0.6-0.1-0.8-0.1-0.8-0.3c0-0.1,0.1-0.2,0.3-0.3c0.2-0.1,0.2-0.4,0.1-1.2l-1.6-11.9h-0.1l-5.9,12.3
			c-0.6,1.3-0.8,1.5-1,1.5s-0.5-0.5-0.9-1.3c-0.6-1.2-2.8-5.4-3.1-6.1c-0.2-0.6-1.9-4-2.8-6h-0.1l-1.4,10.7
			c-0.1,0.5-0.1,0.8-0.1,1.3c0,0.5,0.4,0.8,0.8,0.9c0.5,0.1,0.9,0.1,1.1,0.1c0.2,0,0.4,0.1,0.4,0.2c0,0.2-0.2,0.3-0.6,0.3
			c-1.1,0-2.3-0.1-2.8-0.1c-0.5,0-1.8,0.1-2.7,0.1c-0.3,0-0.5-0.1-0.5-0.3c0-0.1,0.2-0.2,0.4-0.2c0.2,0,0.4,0,0.8-0.1
			c0.8-0.2,1-1.2,1.1-2.1L450.7,352.4z"/>
		<path class="st1" d="M479.2,365.6c-0.1,0-0.2,0.1-0.2,0.2l-1.5,3.9c-0.3,0.7-0.4,1.3-0.4,1.6c0,0.5,0.2,0.8,1.1,0.8h0.4
			c0.3,0,0.4,0.1,0.4,0.2c0,0.2-0.2,0.3-0.5,0.3c-0.9,0-2-0.1-2.9-0.1c-0.3,0-1.8,0.1-3.2,0.1c-0.4,0-0.5-0.1-0.5-0.3
			c0-0.2,0.1-0.2,0.3-0.2c0.2,0,0.6,0,0.8-0.1c1.2-0.2,1.8-1.1,2.3-2.4l6.8-17c0.3-0.8,0.5-1.1,0.8-1.1c0.2,0,0.4,0.2,0.7,0.9
			c0.6,1.5,5,12.5,6.7,16.6c1,2.4,1.8,2.8,2.4,2.9c0.4,0.1,0.8,0.1,1.1,0.1c0.2,0,0.4,0,0.4,0.2c0,0.2-0.2,0.3-1.2,0.3
			c-1,0-2.9,0-5.1-0.1c-0.5,0-0.8,0-0.8-0.2c0-0.2,0.1-0.2,0.4-0.2c0.2-0.1,0.4-0.3,0.2-0.6l-2.2-5.7c-0.1-0.1-0.1-0.2-0.3-0.2
			H479.2z M484.7,364.3c0.1,0,0.2-0.1,0.1-0.2l-2.4-6.7c0-0.1-0.1-0.2-0.1-0.2s-0.1,0.1-0.2,0.2l-2.5,6.6c0,0.1,0,0.2,0.1,0.2H484.7
			z"/>
		<path class="st1" d="M498.5,369c0.1,2.1,0.4,2.8,0.9,3c0.5,0.2,1,0.2,1.4,0.2c0.3,0,0.5,0.1,0.5,0.2c0,0.2-0.2,0.3-0.6,0.3
			c-1.8,0-2.8-0.1-3.3-0.1c-0.2,0-1.5,0.1-2.9,0.1c-0.4,0-0.6,0-0.6-0.3c0-0.2,0.2-0.2,0.4-0.2c0.4,0,0.8,0,1.2-0.1
			c0.7-0.2,0.8-1,0.8-3.3l0.2-16c0-0.5,0.1-0.9,0.4-0.9c0.3,0,0.5,0.4,1,0.8c0.3,0.4,4.4,4.8,8.4,8.7c1.8,1.8,5.5,5.7,5.9,6.2h0.1
			l-0.3-12.1c0-1.6-0.3-2.2-0.9-2.4c-0.4-0.2-1.1-0.2-1.4-0.2c-0.3,0-0.4-0.1-0.4-0.2c0-0.2,0.3-0.2,0.7-0.2c1.4,0,2.7,0.1,3.3,0.1
			c0.3,0,1.3-0.1,2.6-0.1c0.4,0,0.6,0,0.6,0.2c0,0.2-0.2,0.2-0.5,0.2c-0.3,0-0.5,0-0.8,0.1c-0.8,0.2-1,0.8-1,2.3l-0.3,17
			c0,0.6-0.1,0.8-0.4,0.8c-0.3,0-0.6-0.3-0.9-0.6c-1.7-1.6-5.2-5.2-8-7.9c-2.9-2.9-5.9-6.3-6.4-6.8h-0.1L498.5,369z"/>
		<path class="st1" d="M526.2,353.8l-4,0.1c-1.6,0.1-2.2,0.2-2.6,0.8c-0.3,0.4-0.4,0.7-0.5,0.9c-0.1,0.2-0.1,0.3-0.3,0.3
			c-0.2,0-0.2-0.1-0.2-0.4c0-0.4,0.5-2.9,0.6-3.1c0.1-0.4,0.2-0.5,0.3-0.5c0.2,0,0.5,0.3,1.2,0.3c0.8,0.1,1.8,0.1,2.7,0.1H534
			c0.9,0,1.5-0.1,1.9-0.1c0.4-0.1,0.6-0.1,0.7-0.1c0.2,0,0.2,0.2,0.2,0.6c0,0.6-0.1,2.4-0.1,3.1c0,0.3-0.1,0.4-0.2,0.4
			c-0.2,0-0.3-0.1-0.3-0.5l0-0.3c-0.1-0.7-0.8-1.5-3.2-1.5l-3.4-0.1v11.1c0,2.5,0,4.6,0.1,5.8c0.1,0.8,0.2,1.3,1.1,1.5
			c0.4,0.1,1,0.1,1.4,0.1c0.3,0,0.4,0.1,0.4,0.2c0,0.2-0.2,0.3-0.5,0.3c-1.8,0-3.5-0.1-4.2-0.1c-0.6,0-2.3,0.1-3.4,0.1
			c-0.4,0-0.5-0.1-0.5-0.3c0-0.1,0.1-0.2,0.4-0.2c0.4,0,0.7-0.1,1-0.1c0.5-0.1,0.7-0.7,0.8-1.5c0.1-1.1,0.1-3.3,0.1-5.8V353.8z"/>
		<path class="st1" d="M541.8,360.1c0-4.1,0-4.9-0.1-5.7c-0.1-0.9-0.3-1.3-1.2-1.5c-0.2-0.1-0.7-0.1-1.1-0.1c-0.3,0-0.5-0.1-0.5-0.2
			c0-0.2,0.2-0.2,0.6-0.2c0.7,0,1.5,0,2.2,0c0.7,0,1.3,0.1,1.7,0.1c0.9,0,6.2,0,6.7,0c0.5-0.1,0.9-0.1,1.2-0.2
			c0.1,0,0.3-0.1,0.4-0.1c0.1,0,0.2,0.1,0.2,0.2c0,0.2-0.1,0.5-0.2,1.8c0,0.3-0.1,1.5-0.1,1.8c0,0.1-0.1,0.3-0.3,0.3
			c-0.2,0-0.2-0.1-0.2-0.4c0-0.2,0-0.6-0.2-1c-0.2-0.5-0.5-0.8-1.8-1c-0.5-0.1-3.3-0.1-3.8-0.1c-0.1,0-0.2,0.1-0.2,0.3v6.8
			c0,0.2,0,0.3,0.2,0.3c0.6,0,3.7,0,4.3-0.1c0.6-0.1,1.1-0.1,1.3-0.4c0.2-0.2,0.3-0.4,0.4-0.4c0.1,0,0.2,0.1,0.2,0.2s-0.1,0.6-0.2,2
			c0,0.5-0.1,1.6-0.1,1.8c0,0.2,0,0.5-0.2,0.5c-0.2,0-0.2-0.1-0.2-0.2c0-0.3,0-0.6-0.1-1c-0.1-0.5-0.5-0.9-1.5-1.1
			c-0.5-0.1-3.2-0.1-3.8-0.1c-0.1,0-0.2,0.1-0.2,0.3v2.1c0,0.9,0,3.4,0,4.2c0.1,1.9,0.5,2.3,3.2,2.3c0.7,0,1.8,0,2.5-0.3
			c0.7-0.3,1-0.9,1.2-2c0.1-0.3,0.1-0.4,0.3-0.4c0.2,0,0.2,0.2,0.2,0.5c0,0.6-0.2,2.5-0.4,3c-0.2,0.7-0.4,0.7-1.5,0.7
			c-2,0-3.5-0.1-4.7-0.1c-1.2-0.1-2-0.1-2.8-0.1c-0.3,0-0.9,0-1.5,0c-0.6,0-1.3,0.1-1.9,0.1c-0.4,0-0.5-0.1-0.5-0.3
			c0-0.1,0.1-0.2,0.4-0.2c0.4,0,0.7-0.1,1-0.1c0.5-0.1,0.7-0.7,0.8-1.5c0.1-1.1,0.1-3.3,0.1-5.8V360.1z"/>
		<path class="st1" d="M557.3,372.4c-0.4-0.2-0.5-0.3-0.5-0.9c0-1.5,0.1-3.1,0.1-3.5c0-0.4,0.1-0.7,0.3-0.7c0.2,0,0.3,0.2,0.3,0.5
			c0,0.4,0.1,0.9,0.2,1.4c0.6,2,2.2,2.7,3.9,2.7c2.4,0,3.6-1.6,3.6-3.1c0-1.3-0.4-2.6-2.6-4.3l-1.2-1c-3-2.3-4-4.2-4-6.4
			c0-3,2.5-5.1,6.2-5.1c1.8,0,2.9,0.3,3.6,0.5c0.2,0.1,0.4,0.1,0.4,0.3c0,0.4-0.1,1.1-0.1,3.2c0,0.6-0.1,0.8-0.3,0.8
			c-0.2,0-0.3-0.2-0.3-0.5c0-0.2-0.1-1.1-0.7-1.8c-0.4-0.5-1.2-1.3-2.9-1.3c-2,0-3.2,1.2-3.2,2.8c0,1.2,0.6,2.2,2.9,3.9l0.8,0.6
			c3.3,2.5,4.4,4.3,4.4,6.9c0,1.6-0.6,3.4-2.5,4.7c-1.3,0.9-2.9,1.1-4.3,1.1C559.7,373.1,558.5,372.9,557.3,372.4z"/>
		<path class="st1" d="M582.6,360.1c0-4.1,0-4.9-0.1-5.7c-0.1-0.9-0.3-1.3-1.2-1.5c-0.2-0.1-0.7-0.1-1.1-0.1c-0.3,0-0.5-0.1-0.5-0.2
			c0-0.2,0.2-0.2,0.6-0.2c1.4,0,3.1,0.1,3.9,0.1c0.8,0,2.5-0.1,4.2-0.1c3.4,0,7.9,0,10.8,3.1c1.3,1.4,2.6,3.6,2.6,6.9
			c0,3.4-1.4,6-2.9,7.5c-1.2,1.3-4,3.2-9,3.2c-1,0-2.1-0.1-3.1-0.2c-1-0.1-2-0.2-2.6-0.2c-0.3,0-0.9,0-1.5,0c-0.6,0-1.3,0.1-1.9,0.1
			c-0.4,0-0.5-0.1-0.5-0.3c0-0.1,0.1-0.2,0.4-0.2c0.4,0,0.7-0.1,1-0.1c0.5-0.1,0.7-0.7,0.8-1.5c0.1-1.1,0.1-3.3,0.1-5.8V360.1z
			 M586,363.1c0,2.9,0,4.9,0.1,5.5c0,0.7,0.1,1.8,0.3,2.1c0.4,0.5,1.4,1.1,3.5,1.1c2.8,0,4.6-0.5,6.2-1.9c1.7-1.5,2.3-3.9,2.3-6.7
			c0-3.4-1.4-5.6-2.6-6.7c-2.5-2.4-5.6-2.7-7.7-2.7c-0.5,0-1.5,0.1-1.8,0.2c-0.2,0.1-0.3,0.2-0.3,0.5c0,0.9,0,3.3,0,5.4V363.1z"/>
		<path class="st1" d="M607.6,360.1c0-4.1,0-4.9-0.1-5.7c-0.1-0.9-0.3-1.3-1.2-1.5c-0.2-0.1-0.7-0.1-1.1-0.1c-0.3,0-0.5-0.1-0.5-0.2
			c0-0.2,0.2-0.2,0.6-0.2c0.7,0,1.5,0,2.2,0c0.7,0,1.3,0.1,1.7,0.1c0.9,0,6.2,0,6.7,0c0.5-0.1,0.9-0.1,1.2-0.2
			c0.1,0,0.3-0.1,0.4-0.1c0.1,0,0.2,0.1,0.2,0.2c0,0.2-0.1,0.5-0.2,1.8c0,0.3-0.1,1.5-0.1,1.8c0,0.1-0.1,0.3-0.3,0.3
			c-0.2,0-0.2-0.1-0.2-0.4c0-0.2,0-0.6-0.2-1c-0.2-0.5-0.5-0.8-1.8-1c-0.5-0.1-3.3-0.1-3.8-0.1c-0.1,0-0.2,0.1-0.2,0.3v6.8
			c0,0.2,0,0.3,0.2,0.3c0.6,0,3.7,0,4.3-0.1c0.6-0.1,1.1-0.1,1.3-0.4c0.2-0.2,0.3-0.4,0.4-0.4c0.1,0,0.2,0.1,0.2,0.2s-0.1,0.6-0.2,2
			c0,0.5-0.1,1.6-0.1,1.8c0,0.2,0,0.5-0.2,0.5c-0.2,0-0.2-0.1-0.2-0.2c0-0.3,0-0.6-0.1-1c-0.1-0.5-0.5-0.9-1.5-1.1
			c-0.5-0.1-3.2-0.1-3.8-0.1c-0.1,0-0.2,0.1-0.2,0.3v2.1c0,0.9,0,3.4,0,4.2c0.1,1.9,0.5,2.3,3.2,2.3c0.7,0,1.8,0,2.5-0.3
			c0.7-0.3,1-0.9,1.2-2c0.1-0.3,0.1-0.4,0.3-0.4c0.2,0,0.2,0.2,0.2,0.5c0,0.6-0.2,2.5-0.4,3c-0.2,0.7-0.4,0.7-1.5,0.7
			c-2,0-3.5-0.1-4.7-0.1c-1.2-0.1-2-0.1-2.8-0.1c-0.3,0-0.9,0-1.5,0c-0.6,0-1.3,0.1-1.9,0.1c-0.4,0-0.5-0.1-0.5-0.3
			c0-0.1,0.1-0.2,0.4-0.2c0.4,0,0.7-0.1,1-0.1c0.5-0.1,0.7-0.7,0.8-1.5c0.1-1.1,0.1-3.3,0.1-5.8V360.1z"/>
		<path class="st1" d="M633.9,365.6c-0.1,0-0.2,0.1-0.2,0.2l-1.5,3.9c-0.3,0.7-0.4,1.3-0.4,1.6c0,0.5,0.2,0.8,1.1,0.8h0.4
			c0.3,0,0.4,0.1,0.4,0.2c0,0.2-0.2,0.3-0.5,0.3c-0.9,0-2-0.1-2.9-0.1c-0.3,0-1.8,0.1-3.2,0.1c-0.4,0-0.5-0.1-0.5-0.3
			c0-0.2,0.1-0.2,0.3-0.2c0.2,0,0.6,0,0.8-0.1c1.2-0.2,1.8-1.1,2.3-2.4l6.8-17c0.3-0.8,0.5-1.1,0.8-1.1c0.2,0,0.4,0.2,0.7,0.9
			c0.6,1.5,5,12.5,6.7,16.6c1,2.4,1.8,2.8,2.4,2.9c0.4,0.1,0.8,0.1,1.1,0.1c0.2,0,0.4,0,0.4,0.2c0,0.2-0.2,0.3-1.2,0.3
			c-1,0-2.9,0-5.1-0.1c-0.5,0-0.8,0-0.8-0.2c0-0.2,0.1-0.2,0.4-0.2c0.2-0.1,0.4-0.3,0.2-0.6l-2.2-5.7c-0.1-0.1-0.1-0.2-0.3-0.2
			H633.9z M639.4,364.3c0.1,0,0.2-0.1,0.1-0.2l-2.4-6.7c0-0.1-0.1-0.2-0.1-0.2s-0.1,0.1-0.2,0.2l-2.5,6.6c0,0.1,0,0.2,0.1,0.2H639.4
			z"/>
		<path class="st1" d="M653.2,369c0.1,2.1,0.4,2.8,0.9,3c0.5,0.2,1,0.2,1.4,0.2c0.3,0,0.5,0.1,0.5,0.2c0,0.2-0.2,0.3-0.6,0.3
			c-1.8,0-2.8-0.1-3.3-0.1c-0.2,0-1.5,0.1-2.9,0.1c-0.4,0-0.6,0-0.6-0.3c0-0.2,0.2-0.2,0.4-0.2c0.4,0,0.8,0,1.2-0.1
			c0.7-0.2,0.8-1,0.8-3.3l0.2-16c0-0.5,0.1-0.9,0.4-0.9c0.3,0,0.5,0.4,1,0.8c0.3,0.4,4.4,4.8,8.4,8.7c1.8,1.8,5.5,5.7,5.9,6.2h0.1
			l-0.3-12.1c0-1.6-0.3-2.2-0.9-2.4c-0.4-0.2-1.1-0.2-1.4-0.2c-0.3,0-0.4-0.1-0.4-0.2c0-0.2,0.3-0.2,0.7-0.2c1.4,0,2.7,0.1,3.3,0.1
			c0.3,0,1.3-0.1,2.6-0.1c0.4,0,0.6,0,0.6,0.2c0,0.2-0.2,0.2-0.5,0.2c-0.3,0-0.5,0-0.8,0.1c-0.8,0.2-1,0.8-1,2.3l-0.3,17
			c0,0.6-0.1,0.8-0.4,0.8c-0.3,0-0.6-0.3-0.9-0.6c-1.7-1.6-5.2-5.2-8-7.9c-2.9-2.9-5.9-6.3-6.4-6.8h-0.1L653.2,369z"/>
		<path class="st1" d="M693.4,370.9c0,0.7,0,0.8-0.4,1c-1.8,0.9-4.4,1.2-6.5,1.2c-6.6,0-12.5-3.1-12.5-10.6c0-4.3,2.2-7.3,4.7-8.8
			c2.6-1.6,5-1.8,7.3-1.8c1.9,0,4.2,0.3,4.8,0.4c0.6,0.1,1.5,0.3,2.1,0.3c0.3,0,0.4,0.1,0.4,0.3c0,0.3-0.2,1.1-0.2,4.4
			c0,0.4-0.1,0.6-0.3,0.6c-0.2,0-0.2-0.1-0.3-0.4c-0.1-0.6-0.2-1.5-0.9-2.2c-0.8-0.9-3-2.1-6-2.1c-1.5,0-3.5,0.1-5.3,1.7
			c-1.5,1.3-2.5,3.3-2.5,6.6c0,5.8,3.7,10.1,9.4,10.1c0.7,0,1.6,0,2.3-0.3c0.4-0.2,0.5-0.5,0.5-1v-2.5c0-1.3,0-2.4,0-3.2
			c0-0.9-0.3-1.3-1.2-1.5c-0.2-0.1-0.7-0.1-1.1-0.1c-0.2,0-0.4-0.1-0.4-0.2c0-0.2,0.2-0.3,0.6-0.3c1.4,0,3.1,0.1,3.9,0.1
			c0.8,0,2.3-0.1,3.2-0.1c0.4,0,0.5,0.1,0.5,0.3c0,0.2-0.2,0.2-0.4,0.2c-0.2,0-0.4,0-0.7,0.1c-0.7,0.1-1,0.6-1,1.5
			c0,0.8,0,1.9,0,3.2V370.9z"/>
		<path class="st1" d="M698,362.5c0-4.6,3.1-10.6,11.1-10.6c6.7,0,10.9,3.9,10.9,10.1c0,6.2-4.3,11.1-11.2,11.1
			C701.1,373.1,698,367.3,698,362.5z M716.3,363c0-6-3.5-9.8-7.9-9.8c-3.1,0-6.6,1.7-6.6,8.4c0,5.6,3.1,10.1,8.3,10.1
			C711.9,371.7,716.3,370.8,716.3,363z"/>
		<path class="st1" d="M729.1,364.9c0,3.5,0,5.3,0.6,5.8c0.5,0.4,1.2,0.6,3.3,0.6c1.4,0,2.5,0,3.2-0.8c0.3-0.4,0.6-1.1,0.7-1.6
			c0-0.2,0.1-0.4,0.3-0.4c0.2,0,0.2,0.1,0.2,0.5c0,0.3-0.2,2.3-0.4,3.1c-0.2,0.6-0.3,0.7-1.7,0.7c-1.9,0-3.3-0.1-4.6-0.1
			c-1.2-0.1-2.2-0.1-3.3-0.1c-0.3,0-0.9,0-1.5,0c-0.6,0-1.3,0.1-1.9,0.1c-0.4,0-0.5-0.1-0.5-0.3c0-0.1,0.1-0.2,0.4-0.2
			c0.4,0,0.7-0.1,1-0.1c0.5-0.1,0.7-0.7,0.8-1.5c0.1-1.1,0.1-3.3,0.1-5.8v-4.8c0-4.1,0-4.9-0.1-5.7c-0.1-0.9-0.3-1.3-1.2-1.5
			c-0.2-0.1-0.5-0.1-0.9-0.1c-0.3,0-0.5-0.1-0.5-0.2c0-0.2,0.2-0.2,0.6-0.2c1.3,0,3,0.1,3.7,0.1c0.6,0,2.6-0.1,3.7-0.1
			c0.4,0,0.6,0.1,0.6,0.2c0,0.2-0.2,0.2-0.5,0.2c-0.3,0-0.7,0-1.1,0.1c-0.7,0.1-0.9,0.6-1,1.5c-0.1,0.9-0.1,1.6-0.1,5.7V364.9z"/>
		<path class="st1" d="M743.6,365.6c-0.1,0-0.2,0.1-0.2,0.2l-1.5,3.9c-0.3,0.7-0.4,1.3-0.4,1.6c0,0.5,0.2,0.8,1.1,0.8h0.4
			c0.3,0,0.4,0.1,0.4,0.2c0,0.2-0.2,0.3-0.5,0.3c-0.9,0-2-0.1-2.9-0.1c-0.3,0-1.8,0.1-3.2,0.1c-0.4,0-0.5-0.1-0.5-0.3
			c0-0.2,0.1-0.2,0.3-0.2c0.2,0,0.6,0,0.8-0.1c1.2-0.2,1.8-1.1,2.3-2.4l6.8-17c0.3-0.8,0.5-1.1,0.8-1.1c0.2,0,0.4,0.2,0.7,0.9
			c0.6,1.5,5,12.5,6.7,16.6c1,2.4,1.8,2.8,2.4,2.9c0.4,0.1,0.8,0.1,1.1,0.1c0.2,0,0.4,0,0.4,0.2c0,0.2-0.2,0.3-1.2,0.3
			c-1,0-2.9,0-5.1-0.1c-0.5,0-0.8,0-0.8-0.2c0-0.2,0.1-0.2,0.4-0.2c0.2-0.1,0.4-0.3,0.2-0.6l-2.2-5.7c-0.1-0.1-0.1-0.2-0.3-0.2
			H743.6z M749.1,364.3c0.1,0,0.2-0.1,0.1-0.2l-2.4-6.7c0-0.1-0.1-0.2-0.1-0.2s-0.1,0.1-0.2,0.2l-2.5,6.6c0,0.1,0,0.2,0.1,0.2H749.1
			z"/>
		<path class="st1" d="M769.6,360.1c0-4.1,0-4.9-0.1-5.7c-0.1-0.9-0.3-1.3-1.2-1.5c-0.2-0.1-0.7-0.1-1.1-0.1c-0.3,0-0.5-0.1-0.5-0.2
			c0-0.2,0.2-0.2,0.6-0.2c0.7,0,1.5,0,2.2,0c0.7,0,1.3,0.1,1.7,0.1c0.9,0,6.2,0,6.7,0c0.5-0.1,0.9-0.1,1.2-0.2
			c0.1,0,0.3-0.1,0.4-0.1c0.1,0,0.2,0.1,0.2,0.2c0,0.2-0.1,0.5-0.2,1.8c0,0.3-0.1,1.5-0.1,1.8c0,0.1-0.1,0.3-0.3,0.3
			c-0.2,0-0.2-0.1-0.2-0.4c0-0.2,0-0.6-0.2-1c-0.2-0.5-0.5-0.8-1.8-1c-0.5-0.1-3.3-0.1-3.8-0.1c-0.1,0-0.2,0.1-0.2,0.3v6.8
			c0,0.2,0,0.3,0.2,0.3c0.6,0,3.7,0,4.3-0.1c0.6-0.1,1.1-0.1,1.3-0.4c0.2-0.2,0.3-0.4,0.4-0.4c0.1,0,0.2,0.1,0.2,0.2s-0.1,0.6-0.2,2
			c0,0.5-0.1,1.6-0.1,1.8c0,0.2,0,0.5-0.2,0.5c-0.2,0-0.2-0.1-0.2-0.2c0-0.3,0-0.6-0.1-1c-0.1-0.5-0.5-0.9-1.5-1.1
			c-0.5-0.1-3.2-0.1-3.8-0.1c-0.1,0-0.2,0.1-0.2,0.3v2.1c0,0.9,0,3.4,0,4.2c0.1,1.9,0.5,2.3,3.2,2.3c0.7,0,1.8,0,2.5-0.3
			c0.7-0.3,1-0.9,1.2-2c0.1-0.3,0.1-0.4,0.3-0.4c0.2,0,0.2,0.2,0.2,0.5c0,0.6-0.2,2.5-0.4,3c-0.2,0.7-0.4,0.7-1.5,0.7
			c-2,0-3.5-0.1-4.7-0.1c-1.2-0.1-2-0.1-2.8-0.1c-0.3,0-0.9,0-1.5,0c-0.6,0-1.3,0.1-1.9,0.1c-0.4,0-0.5-0.1-0.5-0.3
			c0-0.1,0.1-0.2,0.4-0.2c0.4,0,0.7-0.1,1-0.1c0.5-0.1,0.7-0.7,0.8-1.5c0.1-1.1,0.1-3.3,0.1-5.8V360.1z"/>
		<path class="st1" d="M783.9,371c0-0.7,0.5-1.6,1.6-1.6c0.9,0,1.6,0.6,1.6,1.6s-0.6,1.7-1.7,1.7C784.4,372.6,783.9,371.7,783.9,371
			z"/>
		<path class="st1" d="M793.4,360.1c0-4.1,0-4.9-0.1-5.7c-0.1-0.9-0.3-1.3-1.2-1.5c-0.2-0.1-0.7-0.1-1.1-0.1c-0.3,0-0.5-0.1-0.5-0.2
			c0-0.2,0.2-0.2,0.6-0.2c1.4,0,3.1,0.1,3.9,0.1c1.1,0,2.7-0.1,3.9-0.1c3.4,0,4.6,1.1,5,1.5c0.6,0.6,1.3,1.8,1.3,3.2
			c0,3.8-2.8,6.5-6.6,6.5c-0.1,0-0.4,0-0.6,0c-0.1,0-0.3-0.1-0.3-0.2c0-0.2,0.2-0.3,0.8-0.3c1.5,0,3.6-1.7,3.6-4.5
			c0-0.9-0.1-2.7-1.6-4c-1-0.9-2.1-1.1-2.7-1.1c-0.4,0-0.8,0-1.1,0.1c-0.1,0.1-0.2,0.2-0.2,0.5v10.8c0,2.5,0,4.6,0.1,5.8
			c0.1,0.8,0.2,1.3,1.1,1.5c0.4,0.1,1,0.1,1.4,0.1c0.3,0,0.4,0.1,0.4,0.2c0,0.2-0.2,0.3-0.5,0.3c-1.8,0-3.5-0.1-4.2-0.1
			c-0.6,0-2.3,0.1-3.4,0.1c-0.4,0-0.5-0.1-0.5-0.3c0-0.1,0.1-0.2,0.4-0.2c0.4,0,0.7-0.1,1-0.1c0.5-0.1,0.7-0.7,0.8-1.5
			c0.1-1.1,0.1-3.3,0.1-5.8V360.1z"/>
		<path class="st1" d="M804.8,371c0-0.7,0.5-1.6,1.6-1.6c0.9,0,1.6,0.6,1.6,1.6s-0.6,1.7-1.7,1.7C805.3,372.6,804.8,371.7,804.8,371
			z"/>
	</g>
	<path class="st1" d="M407.5,163.1v-55.3H331C337,134.6,365.7,159.5,407.5,163.1 M407.5,87.3V31.6c-42,3.6-70.8,28.8-76.6,55.7
		H407.5z M429.1,31.5V163c47.2-4,77.7-35.3,77.7-65.8S476.3,35.5,429.1,31.5z M308.4,97.3c0-47.9,48.6-86.7,108.4-86.7
		c62.6,0,108.4,38.8,108.4,86.7S476.6,184,416.8,184C356.9,183.9,308.4,145.1,308.4,97.3z"/>
</g>
</svg>
